# File created by Blade
# Date/Time:  Thu Jan 22 16:04:59 2015
# Frame Rate: 120.000 fps
#------------------------------------------------------
:FULLY-SPECIFIED
:DEGREES
1718
root 3.409980 37.021384 4.469579 1.956324 -0.816252 1.497489
RightUpLeg 4.861950 -4.116032 -7.980104
RightLeg -4.799619 -0.000000 0.000000
RightFoot -9.762762 -15.567763 19.913404
RightToeBase 11.127440 -0.000000 -0.000000
LeftUpLeg 1.611613 -1.174694 7.809893
LeftLeg -2.034438 -0.000000 0.000000
LeftFoot -3.480304 4.199283 -22.552197
LeftToeBase 7.592892 -0.000000 -0.000000
Spine 7.892515 -12.234228 -4.731216
RightShoulder -20.549332 -36.454203 -1.508930
RightArm 4.073079 -32.871600 91.997181
RightForeArm -11.584258 -0.000000 17.076577
RightHand 1.817286 -0.000000 29.477046
RightHandThumb1 -24.326973 -0.000000 -32.862282
LeftShoulder -45.459487 49.094890 -16.241407
LeftArm 22.368679 46.528363 -88.196283
LeftForeArm 65.457084 -0.000000 11.585685
LeftHand 9.390435 -0.000000 -0.214665
LeftHandThumb1 -26.253704 0.000000 33.147579
Head 1.052094 19.994618 5.677084
1719
root 3.411622 37.020999 4.465148 1.932452 -0.799797 1.498154
RightUpLeg 4.869554 -4.129195 -7.982003
RightLeg -4.774565 -0.000000 0.000000
RightFoot -9.785154 -15.560511 19.908857
RightToeBase 11.158807 -0.000000 -0.000000
LeftUpLeg 1.626156 -1.182059 7.808869
LeftLeg -2.038617 -0.000000 0.000000
LeftFoot -3.464328 4.185891 -22.546178
LeftToeBase 7.574401 -0.000000 -0.000000
Spine 7.921304 -12.242272 -4.732757
RightShoulder -20.522266 -36.451751 -1.520865
RightArm 4.087029 -32.900986 92.000435
RightForeArm -11.600428 -0.000000 17.125893
RightHand 1.799551 -0.000000 29.464539
RightHandThumb1 -24.326973 -0.000000 -32.862282
LeftShoulder -45.449272 49.079419 -16.229592
LeftArm 22.364719 46.530216 -88.196475
LeftForeArm 65.478609 -0.000000 11.613166
LeftHand 9.350805 0.000000 -0.141216
LeftHandThumb1 -26.253704 0.000000 33.147579
Head 1.009974 20.017686 5.671860
1720
root 3.414062 37.020654 4.460296 1.911043 -0.781644 1.503997
RightUpLeg 4.882181 -4.144048 -7.993247
RightLeg -4.764213 -0.000000 0.000000
RightFoot -9.777108 -15.547064 19.897237
RightToeBase 11.115543 -0.000000 -0.000000
LeftUpLeg 1.634158 -1.186734 7.802090
LeftLeg -2.035226 -0.000000 0.000000
LeftFoot -3.461564 4.166434 -22.534875
LeftToeBase 7.615725 -0.000000 -0.000000
Spine 7.950490 -12.251820 -4.738873
RightShoulder -20.510039 -36.458526 -1.514489
RightArm 4.115140 -32.908940 91.994152
RightForeArm -11.615558 -0.000000 17.163675
RightHand 1.807351 -0.000000 29.473585
RightHandThumb1 -24.326973 -0.000000 -32.862282
LeftShoulder -45.442632 49.061179 -16.220332
LeftArm 22.350232 46.532444 -88.186916
LeftForeArm 65.451191 -0.000000 11.680239
LeftHand 9.346185 0.000000 -0.149076
LeftHandThumb1 -26.253704 0.000000 33.147579
Head 0.966260 20.012097 5.663905
1721
root 3.416128 37.020479 4.456029 1.885930 -0.761258 1.507408
RightUpLeg 4.899271 -4.146538 -7.999434
RightLeg -4.750367 -0.000000 0.000000
RightFoot -9.789414 -15.580880 19.892045
RightToeBase 11.046250 -0.000000 -0.000000
LeftUpLeg 1.647811 -1.194595 7.798153
LeftLeg -2.035796 -0.000000 0.000000
LeftFoot -3.449427 4.144146 -22.552587
LeftToeBase 7.616194 -0.000000 -0.000000
Spine 7.982512 -12.256588 -4.739469
RightShoulder -20.523914 -36.472302 -1.486548
RightArm 4.160361 -32.966950 91.967066
RightForeArm -11.571516 -0.000000 17.176692
RightHand 1.868654 0.000000 29.516119
RightHandThumb1 -24.326973 -0.000000 -32.862282
LeftShoulder -45.440282 49.055663 -16.221892
LeftArm 22.360738 46.554048 -88.159490
LeftForeArm 65.403527 0.000000 11.721343
LeftHand 9.312393 -0.000000 -0.026721
LeftHandThumb1 -26.253704 0.000000 33.147579
Head 0.920551 19.991173 5.642490
1722
root 3.416140 37.020651 4.451055 1.857718 -0.744254 1.516364
RightUpLeg 4.918128 -4.142778 -8.007306
RightLeg -4.740658 -0.000000 0.000000
RightFoot -9.810507 -15.585991 19.884293
RightToeBase 11.129623 -0.000000 -0.000000
LeftUpLeg 1.661209 -1.208394 7.790688
LeftLeg -2.030595 -0.000000 0.000000
LeftFoot -3.432878 4.135967 -22.560372
LeftToeBase 7.633022 -0.000000 -0.000000
Spine 8.023338 -12.269988 -4.761611
RightShoulder -20.497987 -36.463139 -1.497546
RightArm 4.162825 -32.994864 91.983140
RightForeArm -11.543751 -0.000000 17.201549
RightHand 1.878592 -0.000000 29.517411
RightHandThumb1 -24.326973 -0.000000 -32.862282
LeftShoulder -45.468711 49.062736 -16.231205
LeftArm 22.398662 46.571887 -88.111851
LeftForeArm 65.523052 -0.000000 11.802035
LeftHand 9.296722 0.000000 -0.142735
LeftHandThumb1 -26.253704 0.000000 33.147579
Head 0.878483 19.984419 5.645222
